<?xml version="1.0" encoding="UTF-8"?> <!-- Generator: Adobe Illustrator 24.0.1, SVG Export Plug-In . SVG Version: 6.00 Build 0) --> <svg xmlns="http://www.w3.org/2000/svg" xmlns:xlink="http://www.w3.org/1999/xlink" version="1.1" id="icon" x="0px" y="0px" viewBox="0 0 92.1 93.9" style="enable-background:new 0 0 92.1 93.9;" xml:space="preserve"> <style type="text/css"> .st0{opacity:0.12;fill-rule:evenodd;clip-rule:evenodd;fill:#F7B126;enable-background:new ;} .st1{fill:#F7B126;} </style> <path id="shape" className="st0" d="M80.1,75.4C66.1,95,38.9,99.9,18.9,86.2C-0.7,73-5.8,46.3,7.4,26.7c0.2-0.3,0.3-0.5,0.5-0.7"></path> <g> <g id="group-62svg"> <path id="path-1_57_" className="st1" d="M81,68.4H31.2c-6.4,0-11.2-4.8-11.2-10.6V31.1c0-6,4.8-10.9,10.9-10.9c0.9,0,1.6,0.8,1.6,1.7 c0,0.9-0.6,1.7-1.5,1.7c-4.2,0-7.5,3.4-7.5,7.5v26.7c0,4.3,3.8,7.2,7.7,7.2h49.8c4.1,0,7.4-2.8,7.4-7.2V31.1 c0-4.2-3.4-7.5-7.4-7.5c-0.9,0-1.8-0.8-1.8-1.7c0-0.9,0.9-1.7,1.9-1.7c5.9,0,10.8,4.8,10.8,10.9v26.7C91.8,63.9,87,68.4,81,68.4z"></path> <path id="path-2_57_" className="st1" d="M56.1,47.8c-1.8,0-3.6-0.5-5.4-1.4L22.8,29.1c-0.8-0.5-1-1.6-0.6-2.4c0.5-0.8,1.6-1,2.4-0.6 l27.9,17.4c2.3,1.3,5.1,1.3,7.4-0.1l27.2-17.3c0.8-0.5,1.8-0.2,2.4,0.6c0.5,0.8,0.2,1.8-0.6,2.4L61.6,46.4 C59.9,47.4,58,47.8,56.1,47.8z"></path> <path id="path-3_45_" className="st1" d="M72.6,31.3c-0.6,0-1.1-0.2-1.4-0.8l-6.8-10.1L58,28.5c-0.3,0.5-0.8,0.7-1.4,0.7 c-0.5,0-1-0.2-1.4-0.6l-5.4-6.4L38.3,31c-0.6,0.3-1,0.5-1.6,0.1S36,30.2,36,29.6V5.8C36,2.4,38.1,0,41.7,0h26.7 c3.5,0,6.4,2.4,6.4,5.8v23.7c0,0.8-0.7,1.4-1.5,1.6C73.2,31.3,72.7,31.3,72.6,31.3z M41.7,3.4c-0.7,0-2.3,0.2-2.3,2.4v20.3l10-7.7 c0.7-0.6,1.6-0.5,2.3,0.2l5,6l6.5-8.3c0.3-0.5,0.8-0.7,1.4-0.7c0.6,0,1.3,0.3,1.6,0.8l5.2,7.4v-18c0-2.1-1.8-2.4-3-2.4H41.7z"></path> <path id="path-4_26_" className="st1" d="M50.7,13.7c-0.9,0-1.7-0.8-1.7-1.7c0-1.3-1-2.3-2.3-2.3c-1.3,0-2.3,1-2.3,2.3 c0,0.9-0.8,1.7-1.7,1.7c-0.9,0-1.7-0.8-1.7-1.7c0-3.2,2.5-5.7,5.7-5.7s5.7,2.5,5.7,5.7C52.4,12.9,51.7,13.7,50.7,13.7z"></path> </g> </g> </svg> 