<?xml version="1.0" encoding="UTF-8"?> <!-- Generator: Adobe Illustrator 24.0.1, SVG Export Plug-In . SVG Version: 6.00 Build 0) --> <svg xmlns="http://www.w3.org/2000/svg" xmlns:xlink="http://www.w3.org/1999/xlink" version="1.1" id="icon" x="0px" y="0px" viewBox="0 0 92 68" style="enable-background:new 0 0 92 68;" xml:space="preserve"> <style type="text/css"> .st0{opacity:0.1;fill:#09AFED;enable-background:new ;} .st1{fill:#09AFED;} </style> <g> <path id="shape" className="st0" d="M13.3,17.9h50.1c6.4,0,11.6,5.2,11.6,11.6v27c0,6.4-5.2,11.6-11.6,11.6H13.3 C6.9,68,1.7,62.8,1.7,56.4v-27C1.7,23.1,6.9,17.9,13.3,17.9z"></path> <g> <g> <g> <path className="st1" d="M63.6,17.6c-0.8,0-1.5,0.7-1.5,1.5v0c0,0.8,0.7,1.5,1.5,1.5s1.5-0.7,1.5-1.5v0 C65.1,18.2,64.5,17.6,63.6,17.6z"></path> </g> </g> <g> <g> <path className="st1" d="M64.1,14.1c-2.1-5-6.9-8.2-12.4-8.2c-0.8,0-1.5,0.7-1.5,1.5s0.7,1.5,1.5,1.5c4.2,0,8,2.5,9.6,6.4 c0.2,0.6,0.8,0.9,1.4,0.9c0.2,0,0.4,0,0.6-0.1C64.1,15.7,64.4,14.8,64.1,14.1z"></path> </g> </g> <g> <g> <path className="st1" d="M34,42.3c0-0.1,0-0.2-0.1-0.3c0-0.1-0.1-0.2-0.1-0.3c-0.1-0.1-0.1-0.1-0.2-0.2c-0.1-0.1-0.2-0.1-0.2-0.2 c-0.1-0.1-0.2-0.1-0.3-0.1c-0.1,0-0.2-0.1-0.3-0.1c-0.2,0-0.4,0-0.6,0c-0.1,0-0.2,0-0.3,0.1c-0.1,0-0.2,0.1-0.3,0.1 c-0.1,0.1-0.2,0.1-0.2,0.2c-0.1,0.1-0.1,0.1-0.2,0.2c-0.1,0.1-0.1,0.2-0.1,0.3c0,0.1-0.1,0.2-0.1,0.3c0,0.1,0,0.2,0,0.3 c0,0.1,0,0.2,0,0.3c0,0.1,0,0.2,0.1,0.3c0,0.1,0.1,0.2,0.1,0.3s0.1,0.1,0.2,0.2c0.1,0.1,0.2,0.1,0.2,0.2 c0.1,0.1,0.2,0.1,0.3,0.1c0.1,0,0.2,0.1,0.3,0.1c0.1,0,0.2,0,0.3,0c0.1,0,0.2,0,0.3,0c0.1,0,0.2,0,0.3-0.1 c0.1,0,0.2-0.1,0.3-0.1c0.1-0.1,0.2-0.1,0.2-0.2c0.1-0.1,0.1-0.1,0.2-0.2c0.1-0.1,0.1-0.2,0.1-0.3c0-0.1,0.1-0.2,0.1-0.3 c0-0.1,0-0.2,0-0.3C34,42.5,34,42.4,34,42.3z"></path> </g> </g> <g> <g> <path className="st1" d="M74,17.6c-1,0-2,0.1-3,0.3C70.4,7.9,62,0,51.8,0S33.2,7.9,32.6,17.9c-1-0.2-2-0.3-3-0.3 c-9,0-16.3,7.2-16.3,16.1c0,3.6,1.2,6.9,3.2,9.6c0,0.1,0.1,0.1,0.2,0.2c3,3.9,7.7,6.3,12.9,6.3h10.1v6.5c0,3.6,6.3,5.3,12.1,5.3 s12.1-1.7,12.1-5.3v-6.5h10c0,0,0,0,0,0h0c9,0,16.3-7.2,16.3-16.1S83,17.6,74,17.6z M42.6,38.3c0.1,0.1,0.3,0.1,0.4,0.2 c0,0,0,0,0,0c0.2,0.1,0.3,0.1,0.5,0.2h0c0.2,0.1,0.3,0.1,0.5,0.2c0,0,0,0,0,0c0.2,0,0.3,0.1,0.5,0.1c0,0,0,0,0,0 c0.2,0,0.3,0.1,0.5,0.1h0c0.2,0,0.4,0.1,0.5,0.1c0,0,0,0,0,0c0.2,0,0.3,0.1,0.5,0.1c0,0,0,0,0.1,0c0.2,0,0.3,0.1,0.5,0.1 c0,0,0,0,0,0c0.2,0,0.4,0.1,0.6,0.1h0c0.2,0,0.4,0.1,0.6,0.1c0,0,0,0,0.1,0c0.2,0,0.4,0,0.6,0.1c0,0,0,0,0.1,0 c0.2,0,0.4,0,0.6,0.1c0,0,0,0,0,0c0.2,0,0.4,0,0.6,0c0,0,0,0,0,0c0.2,0,0.4,0,0.6,0c0,0,0,0,0.1,0c0.2,0,0.4,0,0.6,0 c0,0,0,0,0,0c0.2,0,0.4,0,0.6,0s0.4,0,0.6,0h0c0,0,0,0,0,0c0.2,0,0.4,0,0.6,0c0,0,0,0,0.1,0c0.2,0,0.4,0,0.6,0c0,0,0,0,0,0 c0.2,0,0.4,0,0.6,0c0,0,0,0,0,0c0.2,0,0.4,0,0.6-0.1c0,0,0,0,0.1,0c0.2,0,0.4,0,0.6-0.1c0,0,0,0,0.1,0c0.2,0,0.4,0,0.6-0.1h0 c0.2,0,0.4-0.1,0.6-0.1c0,0,0,0,0,0c0.2,0,0.4-0.1,0.5-0.1c0,0,0,0,0.1,0c0.2,0,0.3-0.1,0.5-0.1c0,0,0,0,0,0 c0.2,0,0.4-0.1,0.5-0.1h0c0.2,0,0.3-0.1,0.5-0.1c0,0,0,0,0,0c0.2,0,0.3-0.1,0.5-0.1c0,0,0,0,0,0c0.2-0.1,0.3-0.1,0.5-0.2 c0,0,0,0,0,0c0.2-0.1,0.3-0.1,0.5-0.2c0,0,0,0,0,0c0.1-0.1,0.3-0.1,0.4-0.2c0,0,0,0,0,0v4c0,0.1-0.5,0.8-2.4,1.4 c-1.8,0.6-4.2,0.9-6.8,0.9c-2.6,0-5-0.3-6.8-0.9c-1.9-0.6-2.4-1.3-2.4-1.4L42.6,38.3C42.6,38.3,42.6,38.3,42.6,38.3z M42.6,34.6 c0-0.2,0.6-0.8,2.4-1.4c1.8-0.6,4.2-0.9,6.8-0.9c2.6,0,5,0.3,6.8,0.9c1.8,0.6,2.3,1.2,2.4,1.4v0v0c0,0,0,0,0,0l0,0c0,0,0,0,0,0 s0,0,0,0c0,0,0,0,0,0c0,0,0,0,0,0c0,0,0,0,0,0c0,0,0,0,0,0c0,0,0,0,0,0c0,0,0,0,0,0s0,0-0.1,0c0,0,0,0,0,0c0,0,0,0-0.1,0 c0,0,0,0-0.1,0c0,0,0,0-0.1,0c0,0,0,0-0.1,0c0,0-0.1,0-0.1,0.1c0,0,0,0-0.1,0c0,0-0.1,0-0.1,0.1c0,0-0.1,0-0.1,0 c0,0-0.1,0-0.1,0.1c0,0-0.1,0-0.1,0c0,0-0.1,0-0.1,0.1c0,0-0.1,0-0.1,0c0,0-0.1,0-0.2,0.1c0,0-0.1,0-0.1,0c-0.1,0-0.1,0-0.2,0.1 c0,0-0.1,0-0.1,0c-0.1,0-0.2,0.1-0.3,0.1c-1.8,0.6-4.2,0.9-6.8,0.9s-5-0.3-6.8-0.9c-0.1,0-0.2-0.1-0.3-0.1c0,0-0.1,0-0.1,0 c-0.1,0-0.1,0-0.2-0.1c0,0-0.1,0-0.1-0.1c0,0-0.1,0-0.1-0.1c0,0-0.1,0-0.2-0.1c0,0-0.1,0-0.1,0c-0.1,0-0.1-0.1-0.2-0.1 c0,0,0,0-0.1,0c-0.1,0-0.1-0.1-0.2-0.1c0,0,0,0,0,0C42.8,35,42.6,34.7,42.6,34.6z M61,48.4v0.8c0,0.1-0.5,0.8-2.4,1.4 c-1.8,0.6-4.2,0.9-6.8,0.9s-5-0.3-6.8-0.9c-1.9-0.6-2.4-1.3-2.4-1.4v-0.9v-2.6c2.4,1.1,5.9,1.7,9.2,1.7c3.3,0,6.8-0.5,9.2-1.7 L61,48.4L61,48.4z M58.6,57.8c-1.8,0.6-4.2,0.9-6.8,0.9c-2.6,0-5-0.3-6.8-0.9c-1.9-0.6-2.4-1.3-2.4-1.4v-3.4 c2.4,1.1,5.9,1.7,9.2,1.7s6.8-0.5,9.2-1.7v3.4C61,56.5,60.5,57.1,58.6,57.8z M74,47L74,47C74,47,74,47,74,47c-0.1,0-0.1,0-0.1,0 h-9.9V34.6l0,0l0,0c0-3.6-6.3-5.3-12.1-5.3c-5.9,0-12.1,1.7-12.1,5.3V47H29.6c-3.2,0-6.1-1.1-8.4-2.9h6.9c0.8,0,1.5-0.7,1.5-1.5 s-0.7-1.5-1.5-1.5h-9.6c-1.4-2.1-2.3-4.6-2.3-7.3c0-7.3,6-13.2,13.3-13.2c1.4,0,2.7,0.2,4,0.6c0.5,0.1,1,0.1,1.3-0.2 c0.4-0.3,0.6-0.7,0.6-1.2c0-0.2,0-0.4,0-0.6C35.5,10.2,42.8,3,51.8,3s16.3,7.2,16.3,16.1c0,0.2,0,0.4,0,0.6 c0,0.5,0.2,0.9,0.6,1.2c0.4,0.3,0.9,0.4,1.3,0.2c1.3-0.4,2.6-0.6,4-0.6c7.4,0,13.3,5.9,13.3,13.2S81.4,47,74,47z"></path> </g> </g> </g> </g> </svg> 