<?xml version="1.0" encoding="UTF-8"?> <!-- Generator: Adobe Illustrator 24.0.1, SVG Export Plug-In . SVG Version: 6.00 Build 0) --> <svg xmlns="http://www.w3.org/2000/svg" xmlns:xlink="http://www.w3.org/1999/xlink" version="1.1" id="icon" x="0px" y="0px" viewBox="0 0 90 88" style="enable-background:new 0 0 90 88;" xml:space="preserve"> <style type="text/css"> .st0{opacity:0.1;fill-rule:evenodd;clip-rule:evenodd;fill:#5858F9;enable-background:new ;} .st1{fill:#5858F9;} </style> <g> <path id="shape" className="st0" d="M17.8,26.2c0,0-21.1,11.5-17.3,24.8s21.8,10.2,24.9,24.4c4.8,21.8,47.5,13.7,51-11.9 c1.6-11.3,3.6-23.3-10-34.5C48.2,14.1,17.8,26.2,17.8,26.2z"></path> <g> <g> <g> <path className="st1" d="M66.4,30.3c-0.3,0-0.5,0-0.8,0c-2.4-3.8-6.2-6.1-10.4-6.1c-6.5,0-11.8,5.4-12.4,12.2 c-3.2,0.7-5.6,3.8-5.6,7.4c0,4.2,3.1,7.5,7,7.5h22.2c5.4,0,9.7-4.8,9.7-10.6S71.7,30.3,66.4,30.3z M66.4,48.4H44.1 c-2.3,0-4.2-2.1-4.2-4.6s1.9-4.6,4.2-4.6c0.8,0,1.4-0.7,1.4-1.5c0-5.9,4.3-10.6,9.7-10.6c3.4,0,6.7,2.1,8.4,5.5 c0.3,0.6,0.9,0.9,1.5,0.8c0.4-0.1,0.8-0.1,1.2-0.1c3.8,0,7,3.4,7,7.5S70.2,48.4,66.4,48.4z"></path> </g> </g> <g> <g> <path className="st1" d="M87.2,7.1l-1.4-3C84.6,1.6,82.3,0,79.6,0H64.2c-2.6,0-5,1.6-6.2,4.2l-2.4,5.5c-0.7,1.6-2.2,2.5-3.7,2.5 H33.1c-5.4,0-9.7,4.8-9.7,10.6V53c0,5.9,4.3,10.6,9.7,10.6h47.2c5.4,0,9.7-4.8,9.7-10.6V20C90,15.6,89,11.1,87.2,7.1z M87.2,52.9c0,4.2-3.1,7.5-7,7.5H33.1c-3.8,0-7-3.4-7-7.5V22.7c0-4.2,3.1-7.5,7-7.5h18.8c2.6,0,5-1.6,6.2-4.2l2.4-5.5 C61.2,4,62.7,3,64.2,3h15.4c1.6,0,3,1,3.7,2.5l1.4,3c1.7,3.6,2.4,7.5,2.4,11.5V52.9L87.2,52.9z"></path> </g> </g> <g> <g> <path className="st1" d="M87.2,12.1H48.4c-0.8,0-1.4,0.7-1.4,1.5c0,0.8,0.6,1.5,1.4,1.5h38.9c0.8,0,1.4-0.7,1.4-1.5 C88.6,12.8,87.9,12.1,87.2,12.1z"></path> </g> </g> </g> </g> </svg> 