<?xml version="1.0" encoding="UTF-8"?> <!-- Generator: Adobe Illustrator 24.0.1, SVG Export Plug-In . SVG Version: 6.00 Build 0) --> <svg xmlns="http://www.w3.org/2000/svg" xmlns:xlink="http://www.w3.org/1999/xlink" version="1.1" id="icon" x="0px" y="0px" viewBox="0 0 94 88" style="enable-background:new 0 0 94 88;" xml:space="preserve"> <style type="text/css"> .st0{opacity:8.000000e-02;fill-rule:evenodd;clip-rule:evenodd;fill:#FF4040;enable-background:new ;} .st1{fill:#FF4040;} </style> <path id="shape" className="st0" d="M94,66.2C77.5,89.3,45.6,95,22.2,78.9C-0.9,63.2-6.9,31.8,8.8,8.7C9,8.4,9.1,8.2,9.3,8"></path> <g> <path className="st1" d="M51.9,17.3c-10.2,0-18.6,8.4-18.6,18.6s8.4,18.6,18.6,18.6s18.6-8.4,18.6-18.6S62.1,17.3,51.9,17.3z M51.9,51.8c-8.8,0-15.9-7.2-15.9-15.9s7.2-15.9,15.9-15.9s15.9,7.2,15.9,15.9S60.6,51.8,51.9,51.8z"></path> <path className="st1" d="M84,27.9h-2.7c-0.7-2.5-1.7-4.9-3.1-7.3l1.9-1.9c0.7-0.7,1.1-1.6,1.1-2.7c0-0.9-0.4-1.9-1.1-2.7l-6.1-6.1 c-1.3-1.3-3.9-1.5-5.2,0L67,9.2c-2.3-1.3-4.6-2.3-7.3-3.1V3.5C59.8,1.6,58.2,0,56.1,0h-8.5c-2.1,0-3.7,1.6-3.7,3.7v2.7 C41.4,7,39,8.1,36.6,9.4l-1.9-1.9c-1.5-1.5-3.9-1.3-5.2,0l-6.1,6.1c-0.7,0.7-1.1,1.6-1.1,2.7c0,0.9,0.4,1.9,1.1,2.7l1.9,1.9 c-1.3,2.3-2.3,4.6-3.1,7.3h-2.7c-2-0.3-3.6,1.3-3.6,3.5v8.5c0,2.1,1.6,3.7,3.7,3.7h2.7c0.7,2.5,1.7,4.9,3.1,7.3L23.6,53 c-0.7,0.7-1.1,1.6-1.1,2.7c0,0.9,0.4,1.9,1.1,2.7l6.1,6.1c1.5,1.5,3.9,1.5,5.2,0l1.9-1.9c2.3,1.3,4.6,2.3,7.3,3.1v2.7 c0,2,1.6,3.7,3.7,3.7h8.5c2,0,3.7-1.6,3.7-3.7v-2.7c2.5-0.7,4.9-1.7,7.3-3.1l1.9,1.9c1.5,1.5,3.9,1.3,5.2,0l6.1-6.1 c0.7-0.7,1.1-1.6,1.1-2.7c0-0.9-0.4-1.9-1.1-2.7l-1.9-1.9c1.3-2.3,2.3-4.6,3.1-7.3h2.7c2,0,3.7-1.6,3.7-3.7v-8.5 C87.7,29.5,86.1,27.9,84,27.9z M85.1,40.1c0,0.5-0.4,1.1-1.1,1.1h-4.8L79,42.2c-0.7,2.9-1.9,5.8-3.5,8.4L75,51.5l3.3,3.3 c0.4,0.4,0.4,1.1,0,1.5l-6,6.1c-0.4,0.4-1.1,0.4-1.5,0l-3.3-3.3l-0.9,0.5c-2.7,1.6-5.4,2.8-8.4,3.5l-1.1,0.1V68 c0,0.5-0.5,1.1-1.1,1.1h-8.5c-0.5,0-1.1-0.4-1.1-1.1v-4.8L45.5,63c-2.9-0.7-5.8-1.9-8.4-3.5L36.2,59l-3.3,3.5 c-0.4,0.4-1.1,0.4-1.5,0l-6.1-6.1c-0.4-0.4-0.4-1.1,0-1.5l3.3-3.3l-0.5-0.9c-1.6-2.7-2.8-5.4-3.5-8.4l-0.1-1.1h-4.8 c-0.7,0-1.1-0.5-1.1-1.1v-8.5c0-0.5,0.4-1.1,1.1-1.1h4.8l0.3-1.1c0.7-2.9,1.9-5.7,3.5-8.4l0.5-0.9l-3.5-3.3c-0.4-0.4-0.4-1.1,0-1.5 l6.1-6.1c0.4-0.4,1.1-0.4,1.5,0l3.3,3.3l0.9-0.5c2.7-1.6,5.4-2.8,8.4-3.5l1.1-0.1V3.7c0-0.7,0.5-1.1,1.1-1.1h8.5 c0.5,0,1.1,0.4,1.1,1.1v4.8l1.1,0.3c2.9,0.7,5.7,1.9,8.4,3.5l0.9,0.5l3.3-3.5c0.4-0.4,1.1-0.4,1.5,0l6.1,6.1c0.4,0.4,0.4,1.1,0,1.5 l-3.3,3.3l0.5,0.9c1.6,2.5,2.8,5.4,3.5,8.4l0.3,1.1h4.8c0.5,0,1.1,0.5,1.1,1.1L85.1,40.1L85.1,40.1z"></path> <path className="st1" d="M51.9,22.6c-7.3,0-13.3,6-13.3,13.3s6,13.3,13.3,13.3s13.3-6,13.3-13.3S59.2,22.6,51.9,22.6z M51.9,46.5 c-5.8,0-10.6-4.8-10.6-10.6S46,25.2,51.9,25.2S62.5,30,62.5,35.9S57.7,46.5,51.9,46.5z"></path> </g> </svg> 