<?xml version="1.0" encoding="UTF-8"?> <!-- Generator: Adobe Illustrator 24.0.1, SVG Export Plug-In . SVG Version: 6.00 Build 0) --> <svg xmlns="http://www.w3.org/2000/svg" xmlns:xlink="http://www.w3.org/1999/xlink" version="1.1" id="icon" x="0px" y="0px" viewBox="0 0 88 82" style="enable-background:new 0 0 88 82;" xml:space="preserve"> <style type="text/css"> .st0{opacity:0.1;fill-rule:evenodd;clip-rule:evenodd;fill:#ED43A8;enable-background:new ;} .st1{fill:#ED43A8;} </style> <path id="shape" className="st0" d="M5-0.8L79.3,19c2.6,0.6,4.2,3.2,3.5,5.8c-0.2,0.9-0.7,1.7-1.4,2.4c-2.3,2.4-49.7,50.3-53.8,54.4 c-1.8,1.9-4.9,1.9-6.8,0.1c-0.6-0.6-1.1-1.4-1.3-2.2C18.5,75.3,0.4,9.8-0.8,5.1C-1.6,2.6-0.1,0,2.4-0.7C3.2-1,4.1-1,5-0.8z"></path> <g> <g> <g> <path className="st1" d="M58.9,16.3c0,0.8,0.7,1.4,1.4,1.4h17.2c0.8,0,1.4-0.7,1.4-1.4c0-0.8-0.7-1.4-1.4-1.4H60.3 C59.5,14.9,58.9,15.5,58.9,16.3z"></path> </g> </g> <g> <g> <path className="st1" d="M55,25.9c0,0.8,0.7,1.4,1.4,1.4h21c0.8,0,1.4-0.7,1.4-1.4c0-0.8-0.7-1.4-1.4-1.4h-21 C55.7,24.4,55,25.1,55,25.9z"></path> </g> </g> <g> <g> <path className="st1" d="M36.9,61.3c2.1,2.2,5,3.3,7.8,3.3c2.7,0,5.4-1,7.5-3c4.3-4.1,4.5-11,0.3-15.3c-2.1-2.2-5-3.3-7.8-3.3 c-2.7,0-5.4,1-7.5,3C32.9,50.2,32.8,57,36.9,61.3z M36.8,53.7c0-2.1,0.9-4.1,2.4-5.6c1.5-1.4,3.4-2.2,5.5-2.2 c2.2,0,4.2,0.9,5.7,2.4c1.5,1.5,2.2,3.5,2.2,5.7s-0.9,4.1-2.4,5.6c-1.5,1.4-3.4,2.2-5.5,2.2c-2.2,0-4.2-0.9-5.7-2.4 C37.5,57.8,36.7,55.8,36.8,53.7z"></path> </g> </g> <g> <g> <path className="st1" d="M24.9,56.5c0.3,1.9-1,3-1,3c-0.8,0.7-1.1,2.1-0.7,3.1l1.2,2.5c0.5,0.8,1.5,1.4,2.5,1.4c0.1,0,0.2,0,0.3,0 c0,0,0.1,0,0.4,0c0.6,0,1.7,0.1,2.7,1.1c1.3,1.4,1,3,1,3c-0.2,1,0.3,2.3,1.2,2.9l2.5,1.3c0.3,0.1,0.7,0.2,1.1,0.2 c0.8,0,1.5-0.3,2-0.8c0,0,0.9-0.9,2.4-0.9c0.2,0,0.4,0,0.7,0.1c1.9,0.3,2.6,1.9,2.6,1.9c0.4,0.9,1.5,1.6,2.6,1.6h0.1l2.8-0.4 c1-0.2,2-1.2,2.2-2.3c0,0,0.3-1.7,2-2.5c0.6-0.3,1.1-0.4,1.6-0.4c1,0,1.6,0.4,1.6,0.4c0.4,0.2,0.9,0.3,1.4,0.3 c0.6,0,1.2-0.1,1.6-0.4h25.6c2.1,0,3.8-1.7,3.8-3.8V4.8C89,2.7,87.2,1,85.1,1H50.7c-2.1,0-5.1,1.2-6.6,2.6l-10.7,10 c-1.5,1.4-2.8,4.3-2.8,6.4v15.6c-0.4,0.1-0.7,0.2-1,0.4c0,0-0.2,0.2-1,0.9c-0.8,0.8-1,1-1,1c-0.7,0.8-0.8,2.2-0.4,3.2 c0,0,0.8,1.5-0.1,3.2c-0.9,1.7-2.6,1.9-2.6,1.9c-1.1,0.1-2.1,1.1-2.4,2.1l-0.5,2.8c-0.1,1,0.6,2.3,1.5,2.8 C23.2,53.9,24.7,54.7,24.9,56.5z M46.1,5.7c0.5-0.5,1.4-1,2.3-1.3v10.9c0,0.7-0.3,1.2-0.7,1.7c-0.4,0.4-1,0.7-1.7,0.7H34.1 c0.4-0.8,0.8-1.5,1.3-2L46.1,5.7z M62.3,63.4c0.9-1.7,2.6-1.9,2.6-1.9c1.1-0.1,2.1-1.1,2.4-2.1l0.5-2.8c0.1-1-0.6-2.3-1.5-2.8 c0,0-1.5-0.8-1.8-2.7c-0.3-1.9,1-3,1-3c0.8-0.7,1.1-2.1,0.7-3.1L65,42.6c-0.5-0.8-1.5-1.4-2.5-1.4c-0.1,0-0.2,0-0.3,0 c0,0-0.1,0-0.4,0c-0.6,0-1.7-0.1-2.7-1.1c-1.3-1.4-1-3-1-3c0.2-1-0.4-2.3-1.2-2.9l-2.5-1.3c-0.3-0.1-0.7-0.2-1.1-0.2 c-0.8,0-1.5,0.3-2,0.8c0,0-1,0.9-2.4,0.9c-0.2,0-0.4,0-0.7-0.1c-1.9-0.3-2.6-1.9-2.6-1.9c-0.4-0.9-1.6-1.6-2.6-1.6H43l-2.8,0.4 c-1,0.2-2,1.2-2.2,2.3c0,0-0.3,1.7-2,2.5c-0.6,0.3-1.1,0.4-1.6,0.4c-0.4,0-0.7-0.1-1-0.1v-16v0.5H46c2.9,0,5.3-2.4,5.3-5.3V3.9 h33.9c0.5,0,1,0.4,1,0.9v63.1c0,0.5-0.4,0.9-1,0.9H62.2c0.3-0.8,0.3-1.7-0.1-2.4C62.1,66.5,61.4,65,62.3,63.4z M27.8,56.2 c-0.4-3-2.7-4.5-3.2-4.8l0,0l0.4-2.2l0,0c0.6-0.1,3.3-0.7,4.7-3.3c1.5-2.7,0.4-5.2,0.2-5.8l0-0.2c0.1-0.1,0.3-0.3,0.7-0.7 c0.4-0.4,0.6-0.6,0.8-0.7l0.1,0h0c0.4,0.2,1.5,0.7,3,0.7c1,0,1.9-0.2,2.8-0.6c2.7-1.3,3.4-3.9,3.5-4.5l0,0l2.2-0.3l0,0 c0.7,1.3,2.2,3,4.6,3.4c0.4,0.1,0.8,0.1,1.2,0.1c2.4,0,3.9-1.3,4.4-1.7l0.1,0l2,1.1l0,0c-0.3,1.5,0,3.7,1.7,5.5 c1.7,1.7,3.7,2,4.7,2c0.3,0,0.5,0,0.7,0l0,0l1,2l0,0c-0.5,0.4-2.3,2.4-1.8,5.5c0.3,2.4,1.9,4.1,3.2,4.8l0,0l-0.4,2.2l0,0 c-1.5,0.2-3.5,1.2-4.7,3.3c-1.5,2.7-0.4,5.2-0.2,5.8l0,0.2c-0.1,0.1-0.3,0.3-0.7,0.7c-0.4,0.4-0.6,0.6-0.8,0.7l-0.1,0h0 c-0.4-0.2-1.5-0.7-3-0.7c-1,0-1.9,0.2-2.8,0.6c-2.7,1.3-3.4,3.9-3.5,4.5l0,0l-2.2,0.3l0,0c-0.7-1.3-2.2-3-4.6-3.4 c-0.4-0.1-0.8-0.1-1.2-0.1c-2.4,0-3.9,1.3-4.4,1.7l-0.1,0l-2-1.1l0,0c0.3-1.5,0-3.7-1.7-5.5c-1.7-1.7-3.7-2-4.7-2 c-0.3,0-0.5,0-0.7,0l0,0l-1-2l0,0C26.4,61.2,28.2,59.2,27.8,56.2z"></path> </g> </g> </g> </svg> 