<?xml version="1.0" encoding="UTF-8"?> <!-- Generator: Adobe Illustrator 24.0.1, SVG Export Plug-In . SVG Version: 6.00 Build 0) --> <svg xmlns="http://www.w3.org/2000/svg" xmlns:xlink="http://www.w3.org/1999/xlink" version="1.1" id="icon" x="0px" y="0px" viewBox="0 0 100 86" style="enable-background:new 0 0 100 86;" xml:space="preserve"> <style type="text/css"> .st0{opacity:0.1;fill-rule:evenodd;clip-rule:evenodd;fill:#8838F9;enable-background:new ;} .st1{fill:#8838F9;} </style> <path id="ellipse" className="st0" d="M36,14c19.9,0,64,16.1,64,36c0,32.3-44.1,36-64,36S0,69.9,0,50S16.1,14,36,14z"></path> <g> <g> <g> <path className="st1" d="M31.5,12.6h-2.8V22h2.9c2.7,0,4.7-1.4,4.7-4.7S34.4,12.6,31.5,12.6z M31.4,20h-0.1v-5.4h0.1 c1.4,0,2.4,0.5,2.4,2.6S32.7,20,31.4,20z"></path> </g> </g> <g> <g> <path className="st1" d="M42,12.5c-2.6,0-4.3,1.7-4.3,4.8s1.8,4.9,4.3,4.9s4.3-1.8,4.3-4.9S44.5,12.5,42,12.5z M42,20 c-1.1,0-1.8-1.1-1.8-2.8s0.7-2.7,1.8-2.7s1.8,1,1.8,2.7C43.8,18.9,43.1,20,42,20z"></path> </g> </g> <g> <g> <path className="st1" d="M53.8,19.3c-0.4,0.4-0.9,0.7-1.6,0.7c-1.2,0-2-1-2-2.7c0-1.7,1-2.7,2.1-2.7c0.6,0,1,0.2,1.5,0.6l1.3-1.5 c-0.7-0.7-1.7-1.2-2.9-1.2c-2.4,0-4.6,1.8-4.6,4.9c0,3.2,2.1,4.8,4.5,4.8c1.2,0,2.2-0.5,3-1.4L53.8,19.3z"></path> </g> </g> <g> <g> <rect x="23.5" y="19.4" className="st1" width="2.8" height="2.8"></rect> </g> </g> <g> <g> <path className="st1" d="M89.6,14.2L75.8,0.4c-0.3-0.3-0.6-0.4-1-0.4h-1.4H38.8c-3.8,0-6.9,3.1-6.9,6.9H25c-3.8,0-6.9,3.1-6.9,6.9 v6.9c0,3.8,3.1,6.9,6.9,6.9h6.9v31.8c0,3.8,3.1,6.9,6.9,6.9H43c0.8,0,1.4-0.6,1.4-1.4s-0.6-1.4-1.4-1.4h-4.2 c-2.3,0-4.2-1.9-4.2-4.2V27.7h26.3c3.8,0,6.9-3.1,6.9-6.9v-6.9c0-3.8-3.1-6.9-6.9-6.9H34.6c0-2.3,1.9-4.2,4.2-4.2H72v8.3 c0,3.8,3.1,6.9,6.9,6.9h8.3v41.5c0,2.3-1.9,4.2-4.2,4.2h-4.2c-0.8,0-1.4,0.6-1.4,1.4c0,0.8,0.6,1.4,1.4,1.4H83 c3.8,0,6.9-3.1,6.9-6.9v-43v-1.4C90,14.9,89.9,14.5,89.6,14.2z M60.9,9.7c2.3,0,4.2,1.9,4.2,4.2v6.9c0,2.3-1.9,4.2-4.2,4.2h-36 c-2.3,0-4.2-1.9-4.2-4.2v-6.9c0-2.3,1.9-4.2,4.2-4.2H60.9z M78.9,15.2c-2.3,0-4.2-1.9-4.2-4.2V3.3l11.9,11.9H78.9z"></path> </g> </g> <g> <g> <path className="st1" d="M69.2,44.3H52.6c-3.8,0-6.9,3.1-6.9,6.9V65c0,3.8,3.1,6.9,6.9,6.9h16.6c3.8,0,6.9-3.1,6.9-6.9V51.2 C76.2,47.4,73.1,44.3,69.2,44.3z M73.4,65.1c0,2.3-1.9,4.2-4.2,4.2H52.6c-2.3,0-4.2-1.9-4.2-4.2V51.2c0-2.3,1.9-4.2,4.2-4.2h16.6 c2.3,0,4.2,1.9,4.2,4.2C73.4,51.2,73.4,65.1,73.4,65.1z"></path> </g> </g> <g> <g> <path className="st1" d="M63.7,50.7L55.4,59v6.1h6.1l8.3-8.3L63.7,50.7z M60.4,62.3h-2.2v-2.2l5.5-5.5l2.2,2.2L60.4,62.3z"></path> </g> </g> </g> </svg> 