<?xml version="1.0" encoding="UTF-8"?> <!-- Generator: Adobe Illustrator 24.0.1, SVG Export Plug-In . SVG Version: 6.00 Build 0) --> <svg xmlns="http://www.w3.org/2000/svg" xmlns:xlink="http://www.w3.org/1999/xlink" version="1.1" id="icon" x="0px" y="0px" viewBox="0 0 92 96" style="enable-background:new 0 0 92 96;" xml:space="preserve"> <style type="text/css"> .st0{opacity:0.1;fill-rule:evenodd;clip-rule:evenodd;fill:#08B718;enable-background:new ;} .st1{fill:#08B718;} </style> <g> <path id="shape" className="st0" d="M91.5,51.2c4.4,20.9-19.6,61.3-62,37.5C-2.7,70.6,35.5,76,6.6,54.6C-22.1,33.2,52.2-6.2,47.2,26 C43.4,50.5,85.1,21,91.5,51.2z"></path> <g> <g> <g> <path className="st1" d="M86.1,9.4h-6v-6c0-1.9-1.5-3.4-3.4-3.4H33.2c-1.9,0-3.4,1.5-3.4,3.4v54.7c0,1.9,1.5,3.4,3.4,3.4h6v6 c0,1.9,1.5,3.4,3.4,3.4h29c1.9,0,4.5-1.1,5.9-2.3l9.5-9c1.4-1.3,2.5-3.9,2.5-5.8v-41C89.5,10.9,88,9.4,86.1,9.4z M39.2,12.8 v46.1h-6c-0.5,0-0.9-0.4-0.9-0.9V3.4c0-0.5,0.4-0.9,0.9-0.9h43.5c0.5,0,0.9,0.4,0.9,0.9v6h-35C40.7,9.4,39.2,10.9,39.2,12.8z M85.2,57.7l-9.5,9c-0.2,0.2-0.5,0.4-0.7,0.5v-7.9c0-0.6,0.2-1.1,0.6-1.5s0.9-0.6,1.5-0.6h8.5C85.5,57.4,85.4,57.6,85.2,57.7z M86.9,53.8c0,0.2,0,0.6-0.1,0.9h-9.7c-2.6,0-4.7,2.1-4.7,4.7v8.9c-0.3,0.1-0.6,0.1-0.9,0.1h-29l0,0c-0.5,0-0.9-0.4-0.9-0.9 V12.8c0-0.5,0.4-0.9,0.9-0.9h43.5c0.5,0,0.9,0.4,0.9,0.9L86.9,53.8z"></path> </g> </g> <g> <g> <path className="st1" d="M76.7,21.4H52c-0.7,0-1.3,0.6-1.3,1.3s0.6,1.3,1.3,1.3h24.7c0.7,0,1.3-0.6,1.3-1.3S77.4,21.4,76.7,21.4z"></path> </g> </g> <g> <g> <path className="st1" d="M76.7,38.4H52c-0.7,0-1.3,0.6-1.3,1.3c0,0.7,0.6,1.3,1.3,1.3h24.7c0.7,0,1.3-0.6,1.3-1.3 C78,39,77.4,38.4,76.7,38.4z"></path> </g> </g> <g> <g> <path className="st1" d="M65.6,47H52c-0.7,0-1.3,0.6-1.3,1.3c0,0.7,0.6,1.3,1.3,1.3h13.6c0.7,0,1.3-0.6,1.3-1.3 C66.9,47.6,66.3,47,65.6,47z"></path> </g> </g> <g> <g> <path className="st1" d="M76.7,29.9H52c-0.7,0-1.3,0.6-1.3,1.3s0.6,1.3,1.3,1.3h24.7c0.7,0,1.3-0.6,1.3-1.3S77.4,29.9,76.7,29.9z"></path> </g> </g> </g> </g> </svg> 